<mxfile host="app.diagrams.net" modified="2022-02-18T14:05:37.214Z" agent="5.0 (Windows NT 10.0; Win64; x64) AppleWebKit/537.36 (KHTML, like Gecko) Chrome/98.0.4758.102 Safari/537.36" etag="da6-LdZe7wjXMeQpc8A5" version="15.7.3" type="github">
  <diagram id="5_cnRUb7jA8dsfvRN5lG" name="Page-1">
    <mxGraphModel dx="1480" dy="715" grid="1" gridSize="10" guides="1" tooltips="1" connect="1" arrows="1" fold="1" page="1" pageScale="1" pageWidth="827" pageHeight="1169" math="0" shadow="0">
      <root>
        <mxCell id="0" />
        <mxCell id="1" parent="0" />
        <mxCell id="a1d34m7m4BTlSBjaba5_-12" style="edgeStyle=orthogonalEdgeStyle;curved=1;rounded=0;orthogonalLoop=1;jettySize=auto;html=1;entryX=0;entryY=0.25;entryDx=0;entryDy=0;fontSize=16;exitX=1;exitY=0.25;exitDx=0;exitDy=0;" parent="1" source="a1d34m7m4BTlSBjaba5_-17" target="a1d34m7m4BTlSBjaba5_-18" edge="1">
          <mxGeometry relative="1" as="geometry">
            <mxPoint x="254" y="440" as="sourcePoint" />
            <mxPoint x="375.1091270347399" y="421.1091270347399" as="targetPoint" />
          </mxGeometry>
        </mxCell>
        <mxCell id="a1d34m7m4BTlSBjaba5_-13" value="运行效率提升" style="edgeLabel;html=1;align=center;verticalAlign=middle;resizable=0;points=[];fontSize=14;" parent="a1d34m7m4BTlSBjaba5_-12" vertex="1" connectable="0">
          <mxGeometry x="0.2557" y="-1" relative="1" as="geometry">
            <mxPoint x="-20" y="-2" as="offset" />
          </mxGeometry>
        </mxCell>
        <mxCell id="a1d34m7m4BTlSBjaba5_-14" value="在线预测" style="rounded=0;orthogonalLoop=1;jettySize=auto;html=1;exitX=0.5;exitY=1;exitDx=0;exitDy=0;entryX=0.25;entryY=0;entryDx=0;entryDy=0;fontSize=14;exitPerimeter=0;" parent="1" source="a1d34m7m4BTlSBjaba5_-17" target="a1d34m7m4BTlSBjaba5_-7" edge="1">
          <mxGeometry relative="1" as="geometry">
            <mxPoint x="180" y="510" as="sourcePoint" />
          </mxGeometry>
        </mxCell>
        <mxCell id="a1d34m7m4BTlSBjaba5_-10" style="edgeStyle=orthogonalEdgeStyle;curved=1;rounded=0;orthogonalLoop=1;jettySize=auto;html=1;exitX=0;exitY=0.75;exitDx=0;exitDy=0;entryX=1;entryY=0.75;entryDx=0;entryDy=0;fontSize=16;" parent="1" source="a1d34m7m4BTlSBjaba5_-18" target="a1d34m7m4BTlSBjaba5_-17" edge="1">
          <mxGeometry relative="1" as="geometry">
            <mxPoint x="375.1091270347399" y="493.8908729652601" as="sourcePoint" />
            <mxPoint x="253.8908729652601" y="493.8908729652601" as="targetPoint" />
          </mxGeometry>
        </mxCell>
        <mxCell id="a1d34m7m4BTlSBjaba5_-11" value="模型升级" style="edgeLabel;html=1;align=center;verticalAlign=middle;resizable=0;points=[];fontSize=14;" parent="a1d34m7m4BTlSBjaba5_-10" vertex="1" connectable="0">
          <mxGeometry x="0.3052" y="1" relative="1" as="geometry">
            <mxPoint x="14" as="offset" />
          </mxGeometry>
        </mxCell>
        <mxCell id="a1d34m7m4BTlSBjaba5_-16" value="成果输出" style="edgeStyle=orthogonalEdgeStyle;curved=1;rounded=0;orthogonalLoop=1;jettySize=auto;html=1;exitX=0;exitY=0.25;exitDx=0;exitDy=0;entryX=1;entryY=0.25;entryDx=0;entryDy=0;fontSize=14;" parent="1" source="a1d34m7m4BTlSBjaba5_-19" target="a1d34m7m4BTlSBjaba5_-18" edge="1">
          <mxGeometry x="-0.2558" relative="1" as="geometry">
            <mxPoint x="611" y="460" as="sourcePoint" />
            <mxPoint x="520" y="460" as="targetPoint" />
            <mxPoint as="offset" />
          </mxGeometry>
        </mxCell>
        <mxCell id="a1d34m7m4BTlSBjaba5_-23" style="edgeStyle=orthogonalEdgeStyle;rounded=0;orthogonalLoop=1;jettySize=auto;html=1;exitX=0.402;exitY=0.033;exitDx=0;exitDy=0;fontSize=14;exitPerimeter=0;" parent="1" source="a1d34m7m4BTlSBjaba5_-7" edge="1">
          <mxGeometry relative="1" as="geometry">
            <mxPoint x="282" y="470" as="targetPoint" />
          </mxGeometry>
        </mxCell>
        <mxCell id="a1d34m7m4BTlSBjaba5_-24" value="结果反馈" style="edgeLabel;html=1;align=center;verticalAlign=middle;resizable=0;points=[];fontSize=14;horizontal=0;" parent="a1d34m7m4BTlSBjaba5_-23" vertex="1" connectable="0">
          <mxGeometry x="0.3614" y="1" relative="1" as="geometry">
            <mxPoint x="-11" y="18" as="offset" />
          </mxGeometry>
        </mxCell>
        <mxCell id="a1d34m7m4BTlSBjaba5_-7" value="效果评价" style="rounded=1;whiteSpace=wrap;html=1;fontSize=16;" parent="1" vertex="1">
          <mxGeometry x="230" y="600" width="130" height="60" as="geometry" />
        </mxCell>
        <mxCell id="a1d34m7m4BTlSBjaba5_-17" value="&lt;font style=&quot;font-size: 18px&quot;&gt;在线预测优化&lt;/font&gt;" style="rounded=0;whiteSpace=wrap;html=1;fontSize=14;" parent="1" vertex="1">
          <mxGeometry x="-40" y="380" width="140" height="90" as="geometry" />
        </mxCell>
        <mxCell id="P4OMtAQCf9m_fegSbnCT-1" value="离线测试" style="edgeStyle=orthogonalEdgeStyle;rounded=0;orthogonalLoop=1;jettySize=auto;html=1;fontSize=14;horizontal=0;" parent="1" edge="1">
          <mxGeometry x="-0.0853" y="10" relative="1" as="geometry">
            <mxPoint x="310" y="471" as="sourcePoint" />
            <mxPoint x="310" y="600" as="targetPoint" />
            <Array as="points">
              <mxPoint x="310" y="471" />
              <mxPoint x="310" y="600" />
            </Array>
            <mxPoint as="offset" />
          </mxGeometry>
        </mxCell>
        <mxCell id="a1d34m7m4BTlSBjaba5_-18" value="&lt;font style=&quot;font-size: 18px&quot;&gt;模型建设与优化&lt;/font&gt;" style="rounded=0;whiteSpace=wrap;html=1;fontSize=14;" parent="1" vertex="1">
          <mxGeometry x="225" y="380" width="140" height="90" as="geometry" />
        </mxCell>
        <mxCell id="a1d34m7m4BTlSBjaba5_-19" value="&lt;font style=&quot;font-size: 18px&quot;&gt;技术难点攻关&lt;/font&gt;" style="rounded=0;whiteSpace=wrap;html=1;fontSize=14;" parent="1" vertex="1">
          <mxGeometry x="570" y="380" width="140" height="90" as="geometry" />
        </mxCell>
        <mxCell id="a1d34m7m4BTlSBjaba5_-21" value="" style="edgeStyle=orthogonalEdgeStyle;curved=1;rounded=0;orthogonalLoop=1;jettySize=auto;html=1;exitX=1.007;exitY=0.656;exitDx=0;exitDy=0;fontSize=14;exitPerimeter=0;entryX=-0.001;entryY=0.644;entryDx=0;entryDy=0;entryPerimeter=0;" parent="1" source="a1d34m7m4BTlSBjaba5_-18" target="a1d34m7m4BTlSBjaba5_-19" edge="1">
          <mxGeometry relative="1" as="geometry">
            <mxPoint x="630" y="442.5" as="sourcePoint" />
            <mxPoint x="530" y="439" as="targetPoint" />
          </mxGeometry>
        </mxCell>
        <mxCell id="a1d34m7m4BTlSBjaba5_-22" value="实践效果反馈" style="edgeLabel;html=1;align=center;verticalAlign=middle;resizable=0;points=[];fontSize=14;" parent="a1d34m7m4BTlSBjaba5_-21" vertex="1" connectable="0">
          <mxGeometry x="-0.2108" y="-1" relative="1" as="geometry">
            <mxPoint x="49" as="offset" />
          </mxGeometry>
        </mxCell>
        <mxCell id="a1d34m7m4BTlSBjaba5_-26" style="edgeStyle=orthogonalEdgeStyle;rounded=0;orthogonalLoop=1;jettySize=auto;html=1;exitX=0.5;exitY=1;exitDx=0;exitDy=0;entryX=0.5;entryY=0;entryDx=0;entryDy=0;fontSize=14;" parent="1" source="a1d34m7m4BTlSBjaba5_-25" target="a1d34m7m4BTlSBjaba5_-18" edge="1">
          <mxGeometry relative="1" as="geometry" />
        </mxCell>
        <mxCell id="a1d34m7m4BTlSBjaba5_-27" style="edgeStyle=orthogonalEdgeStyle;rounded=0;orthogonalLoop=1;jettySize=auto;html=1;exitX=0.5;exitY=1;exitDx=0;exitDy=0;entryX=0.5;entryY=0;entryDx=0;entryDy=0;fontSize=14;" parent="1" source="a1d34m7m4BTlSBjaba5_-25" target="a1d34m7m4BTlSBjaba5_-19" edge="1">
          <mxGeometry relative="1" as="geometry" />
        </mxCell>
        <mxCell id="a1d34m7m4BTlSBjaba5_-28" value="数据支持" style="edgeLabel;html=1;align=center;verticalAlign=middle;resizable=0;points=[];fontSize=14;" parent="a1d34m7m4BTlSBjaba5_-27" vertex="1" connectable="0">
          <mxGeometry x="-0.7657" y="2" relative="1" as="geometry">
            <mxPoint x="-2" y="-7" as="offset" />
          </mxGeometry>
        </mxCell>
        <mxCell id="a1d34m7m4BTlSBjaba5_-25" value="监测点位选取与数据整理" style="rounded=1;whiteSpace=wrap;html=1;fontSize=16;" parent="1" vertex="1">
          <mxGeometry x="180" y="180" width="230" height="60" as="geometry" />
        </mxCell>
        <mxCell id="P4OMtAQCf9m_fegSbnCT-2" value="" style="endArrow=none;dashed=1;html=1;fontSize=14;spacing=3;strokeWidth=2;" parent="1" edge="1">
          <mxGeometry width="50" height="50" relative="1" as="geometry">
            <mxPoint x="440" y="660" as="sourcePoint" />
            <mxPoint x="440" y="150" as="targetPoint" />
          </mxGeometry>
        </mxCell>
      </root>
    </mxGraphModel>
  </diagram>
</mxfile>
